HIERARCHY
ROOT Hips
{
 OFFSET 0.000000 0.000000 0.000000
 CHANNELS 6 Xposition Yposition Zposition Yrotation Xrotation Zrotation
 JOINT Chest
 {
  OFFSET 0.000000 10.383400 0.001500
  CHANNELS 3 Yrotation Xrotation Zrotation
  JOINT Chest2
  {
   OFFSET 0.000000 10.418200 -0.003100
   CHANNELS 3 Yrotation Xrotation Zrotation
   JOINT Chest3
   {
    OFFSET 0.000000 10.375100 0.000000
    CHANNELS 3 Yrotation Xrotation Zrotation
    JOINT Chest4
    {
     OFFSET 0.000000 10.364600 0.000000
     CHANNELS 3 Yrotation Xrotation Zrotation
     JOINT Neck
     {
      OFFSET 0.000000 15.642200 0.000000
      CHANNELS 3 Yrotation Xrotation Zrotation
      JOINT Head
      {
       OFFSET 0.000000 9.697300 -0.006500
       CHANNELS 3 Yrotation Xrotation Zrotation
       End Site
       {
        OFFSET 0.000000 18.492200 -0.003400
       }
      }
     }
     JOINT RightCollar
     {
      OFFSET -3.166800 10.349300 0.000000
      CHANNELS 3 Yrotation Xrotation Zrotation
      JOINT RightShoulder
      {
       OFFSET -14.729700 0.000000 0.000000
       CHANNELS 3 Yrotation Xrotation Zrotation
       JOINT RightElbow
       {
        OFFSET 0.000000 -32.224300 0.000000
        CHANNELS 3 Yrotation Xrotation Zrotation
        JOINT RightWrist
        {
         OFFSET 0.000000 -26.084100 0.000000
         CHANNELS 3 Yrotation Xrotation Zrotation
         End Site
         {
          OFFSET 0.000000 -19.319400 0.000000
         }
        }
       }
      }
     }
     JOINT LeftCollar
     {
      OFFSET 3.166800 10.349300 0.000000
      CHANNELS 3 Yrotation Xrotation Zrotation
      JOINT LeftShoulder
      {
       OFFSET 14.729700 0.000000 0.000000
       CHANNELS 3 Yrotation Xrotation Zrotation
       JOINT LeftElbow
       {
        OFFSET 0.000000 -32.224300 0.000000
        CHANNELS 3 Yrotation Xrotation Zrotation
        JOINT LeftWrist
        {
         OFFSET 0.000000 -26.084100 0.000000
         CHANNELS 3 Yrotation Xrotation Zrotation
         End Site
         {
          OFFSET 0.000000 -19.319400 0.000000
         }
        }
       }
      }
     }
    }
   }
  }
 }
 JOINT RightHip
 {
  OFFSET -8.428900 -0.007500 -0.000800
  CHANNELS 3 Yrotation Xrotation Zrotation
  JOINT RightKnee
  {
   OFFSET 0.000000 -43.834600 0.000700
   CHANNELS 3 Yrotation Xrotation Zrotation
   JOINT RightAnkle
   {
    OFFSET 0.000000 -42.757000 0.001200
    CHANNELS 3 Yrotation Xrotation Zrotation
    JOINT RightToe
    {
     OFFSET 0.000000 -6.946900 15.649300
     CHANNELS 3 Yrotation Xrotation Zrotation
     End Site
     {
      OFFSET 0.000000 -1.580800 6.825800
     }
    }
   }
  }
 }
 JOINT LeftHip
 {
  OFFSET 8.428900 -0.007500 -0.000800
  CHANNELS 3 Yrotation Xrotation Zrotation
  JOINT LeftKnee
  {
   OFFSET 0.000000 -43.834600 0.000700
   CHANNELS 3 Yrotation Xrotation Zrotation
   JOINT LeftAnkle
   {
    OFFSET 0.000000 -42.757000 0.001200
    CHANNELS 3 Yrotation Xrotation Zrotation
    JOINT LeftToe
    {
     OFFSET 0.000000 -6.946900 15.649300
     CHANNELS 3 Yrotation Xrotation Zrotation
     End Site
     {
      OFFSET 0.000000 -1.580800 6.825800
     }
    }
   }
  }
 }
}
MOTION
Frames: 12
Frame Time: 0.008333
24.778422 127.232137 -54.448316 -19.715509 -35.388126 -1.535840 -6.838816 21.485366 2.120647 -1.000782 3.016953 0.454920 -1.610890 4.890872 0.711140 -5.748485 18.036409 2.020988 2.946026 15.206513 -5.698999 7.587946 -7.041187 -11.700460 -3.625800 -4.351960 -13.375604 -4.181565 -4.510922 5.762442 -12.871990 -32.307403 -7.864624 -3.776128 -14.002812 -4.386249 1.634047 -0.942879 2.921598 4.014442 0.126001 -5.006097 13.683956 -41.325885 5.185068 -5.506011 -16.987967 9.187199 0.983507 -35.808967 3.313863 -20.792696 69.258179 -19.389662 5.672933 6.158583 8.922033 -0.008007 0.005867 -0.003555 -7.070563 -29.110421 -4.484558 0.226150 63.650640 1.899380 -12.491968 3.404314 -7.842615 -0.003419 -0.002592 -0.001518
24.781729 127.231515 -54.463477 -19.712846 -35.431065 -1.529209 -6.833201 21.474454 2.143139 -1.000512 2.976618 0.486652 -1.616632 4.910192 0.716334 -5.771939 18.082308 1.986104 2.920445 15.216995 -5.739135 7.555795 -7.074852 -11.755330 -3.670833 -4.313598 -13.393080 -4.279191 -4.466738 5.789714 -12.999343 -32.227477 -7.855945 -3.771998 -14.011703 -4.415465 1.640714 -0.898331 2.908983 4.107389 0.200829 -5.040102 13.627087 -41.147436 5.232212 -5.494071 -17.062486 9.287753 1.073199 -35.798129 3.264350 -20.875754 69.260677 -19.434521 5.671600 6.243579 8.959026 -0.000451 0.007437 -0.000200 -7.081330 -29.072096 -4.497352 0.230788 63.637035 1.902371 -12.474451 3.412817 -7.846762 -0.004484 -0.000263 -0.001990
24.783731 127.231539 -54.477870 -19.710410 -35.480647 -1.527615 -6.831811 21.415578 2.193420 -1.006274 3.035583 0.460148 -1.619353 4.929713 0.709652 -5.769692 18.087106 2.004204 2.893165 15.210082 -5.776740 7.494631 -7.077888 -11.817191 -3.712398 -4.273697 -13.417398 -4.354904 -4.429577 5.819081 -13.142601 -32.134836 -7.853756 -3.774941 -14.020442 -4.451227 1.645875 -0.851226 2.894005 4.185235 0.263399 -5.059382 13.598682 -40.950971 5.262083 -5.486058 -17.110573 9.358041 1.122001 -35.767332 3.228917 -20.904227 69.265741 -19.434800 5.667676 6.310603 8.977046 0.007582 0.018964 0.003367 -7.095196 -29.027336 -4.504635 0.240445 63.626326 1.912824 -12.469082 3.418404 -7.853525 -0.004926 0.001775 -0.002187
24.787879 127.233504 -54.488180 -19.702342 -35.550766 -1.510336 -6.845551 21.425697 2.193361 -1.009508 3.067688 0.445017 -1.620902 4.944544 0.701626 -5.758734 18.070532 2.044966 2.862293 15.216225 -5.814503 7.426604 -7.048554 -11.862887 -3.745234 -4.230309 -13.446324 -4.411095 -4.397262 5.844724 -13.296109 -32.029472 -7.855465 -3.782850 -14.033778 -4.492903 1.667320 -0.773403 2.902269 4.213640 0.277760 -5.095373 13.605062 -40.732570 5.284307 -5.482655 -17.128708 9.402249 1.187830 -35.711658 3.166034 -20.924707 69.255026 -19.438434 5.673803 6.360407 9.010298 0.006774 0.008548 0.003007 -7.127053 -28.962270 -4.528377 0.282462 63.609640 1.934664 -12.464785 3.428101 -7.865902 -0.005068 0.003038 -0.002250
24.789396 127.236241 -54.498220 -19.713648 -35.630086 -1.494823 -6.842420 21.443050 2.204239 -1.011651 3.059889 0.455163 -1.625087 4.969038 0.695360 -5.761534 18.077574 2.053326 2.827043 15.234790 -5.851427 7.352306 -6.987567 -11.907314 -3.764032 -4.187713 -13.482004 -4.443558 -4.374505 5.861910 -13.462645 -31.900941 -7.857598 -3.793871 -14.051700 -4.539005 1.704586 -0.656251 2.944553 4.213394 0.256518 -5.158682 13.620673 -40.514152 5.301939 -5.481788 -17.121590 9.421148 1.268644 -35.654657 3.111586 -20.972654 69.252614 -19.458124 5.690349 6.447934 9.049660 0.006667 0.009751 0.002960 -7.129312 -28.886391 -4.546144 0.284855 63.600247 1.934915 -12.449194 3.434037 -7.876367 -0.004804 0.003052 -0.002133
24.790983 127.243879 -54.500713 -19.713037 -35.758409 -1.471754 -6.860224 21.507008 2.192505 -1.012691 3.051067 0.465710 -1.626562 4.955203 0.718223 -5.787397 18.120099 2.026110 2.796810 15.263235 -5.892729 7.269323 -6.886888 -11.946757 -3.764551 -4.154674 -13.531702 -4.452658 -4.366955 5.867612 -13.640087 -31.741688 -7.856638 -3.807710 -14.068339 -4.588195 1.723921 -0.575753 2.958910 4.219736 0.266301 -5.187627 13.635600 -40.294817 5.331430 -5.482464 -17.099397 9.409638 1.338598 -35.542502 3.055260 -21.012364 69.232769 -19.505559 5.713082 6.553429 9.127190 -0.004453 0.001605 -0.001977 -7.117686 -28.757634 -4.592707 0.275804 63.589010 1.924799 -12.417059 3.443118 -7.871876 -0.003066 0.000892 -0.001361
24.791248 127.248872 -54.507656 -19.705010 -35.863171 -1.468224 -6.881920 21.551769 2.199428 -1.016675 3.056979 0.467403 -1.634780 4.952023 0.730144 -5.804333 18.142794 2.018936 2.734776 15.333479 -5.919150 7.217930 -6.775905 -12.014778 -3.758421 -4.118627 -13.570395 -4.464449 -4.336841 5.890619 -13.764225 -31.622836 -7.891130 -3.822023 -14.083906 -4.637473 1.738514 -0.532844 2.930168 4.225206 0.288831 -5.180779 13.624758 -40.067357 5.400542 -5.484129 -17.072375 9.369149 1.356655 -35.446622 3.031638 -21.012104 69.233350 -19.503528 5.705958 6.625669 9.159268 0.005728 0.013484 0.002543 -7.122967 -28.655267 -4.616692 0.282715 63.582341 1.938140 -12.414999 3.446945 -7.879825 -0.002381 0.000812 -0.001057
24.794197 127.250847 -54.518007 -19.700282 -35.941679 -1.455369 -6.903768 21.585952 2.192672 -1.020935 3.050360 0.477364 -1.641624 4.962083 0.732213 -5.821485 18.156017 2.020798 2.682256 15.421196 -5.951305 7.151655 -6.639311 -12.068189 -3.738410 -4.091552 -13.604284 -4.465048 -4.308009 5.911733 -13.874959 -31.507773 -7.941971 -3.832311 -14.098077 -4.677115 1.755434 -0.499259 2.902628 4.225542 0.290040 -5.194253 13.556601 -39.831705 5.535182 -5.484688 -17.050476 9.314804 1.441318 -35.396271 2.969165 -21.072823 69.238028 -19.538332 5.711023 6.720685 9.227638 0.005985 0.014205 0.002657 -7.138217 -28.585083 -4.639943 0.314372 63.571387 1.973158 -12.444352 3.462581 -7.894881 -0.000913 0.001465 -0.000406
24.798396 127.251724 -54.529552 -19.705848 -36.011598 -1.432572 -6.913016 21.639269 2.168529 -1.023003 3.040528 0.486528 -1.652074 4.950108 0.751590 -5.829961 18.178192 1.999513 2.635891 15.499002 -5.959719 7.069392 -6.480770 -12.107358 -3.729077 -4.077587 -13.604874 -4.469980 -4.268208 5.955172 -13.936685 -31.419268 -8.033467 -3.836626 -14.103979 -4.697511 1.758862 -0.466530 2.926379 4.209781 0.303291 -5.193113 13.495759 -39.622522 5.651192 -5.487445 -17.045409 9.258153 1.611381 -35.390272 2.870923 -21.223795 69.245661 -19.646609 5.751044 6.904915 9.381485 -0.004136 -0.000365 -0.001836 -7.139323 -28.524791 -4.663131 0.333278 63.565327 1.983872 -12.451717 3.476903 -7.902283 -0.002272 0.001998 -0.001009
24.800391 127.254075 -54.539973 -19.694053 -36.095418 -1.429969 -6.931924 21.668063 2.179023 -1.025755 3.070532 0.470143 -1.666996 4.939706 0.769194 -5.836191 18.198901 1.979039 2.584671 15.579052 -5.966791 6.984693 -6.324439 -12.143914 -3.728939 -4.066955 -13.598821 -4.475112 -4.262186 5.950824 -13.994402 -31.301525 -8.091882 -3.832306 -14.100113 -4.700784 1.757902 -0.436520 2.948868 4.173639 0.335728 -5.125601 13.467574 -39.434572 5.721063 -5.501215 -17.061503 9.199819 1.677715 -35.342337 2.822389 -21.296325 69.262122 -19.689359 5.759707 7.011859 9.456592 0.007371 0.003138 0.003272 -7.156227 -28.448827 -4.681532 0.355841 63.559075 2.007003 -12.451585 3.490506 -7.916935 -0.000752 0.002028 -0.000334
24.803820 127.254377 -54.553075 -19.680954 -36.160273 -1.426575 -6.970855 21.636267 2.198286 -1.033059 3.085507 0.474807 -1.666675 4.987367 0.744512 -5.873466 18.207691 2.013725 2.543730 15.670237 -6.040701 6.900507 -6.179346 -12.177922 -3.729875 -4.023611 -13.616545 -4.468856 -4.290792 5.909374 -14.022394 -31.194963 -8.147076 -3.821567 -14.091834 -4.692224 1.783575 -0.390470 2.905725 4.179562 0.328468 -5.141497 13.288543 -39.248402 5.947413 -5.525262 -17.094764 9.147562 1.736158 -35.311902 2.777399 -21.370763 69.276941 -19.738829 5.764418 7.099834 9.522518 0.016284 0.005486 0.007229 -7.173507 -28.393088 -4.702378 0.369056 63.551762 2.024218 -12.436259 3.506429 -7.932132 0.001345 0.003003 0.000597
24.809755 127.249816 -54.572591 -19.682614 -36.179651 -1.414523 -6.983729 21.588132 2.211844 -1.030646 3.140364 0.450272 -1.672879 4.982930 0.751762 -5.879191 18.219223 2.003960 2.495561 15.734459 -6.041385 6.816668 -6.048448 -12.206009 -3.759821 -4.000493 -13.593086 -4.493436 -4.301155 5.898708 -14.026454 -31.101791 -8.191869 -3.812150 -14.086748 -4.678271 1.770788 -0.343813 2.967256 4.196973 0.303548 -5.188730 13.078297 -39.082313 6.195036 -5.553533 -17.134527 9.115276 1.785946 -35.317022 2.751893 -21.441949 69.250760 -19.835705 5.804314 7.176973 9.615265 0.000751 0.000230 0.000333 -7.181371 -28.387845 -4.710695 0.384357 63.549891 2.030116 -12.423736 3.522730 -7.932896 -0.000586 0.006098 -0.000260
